<svg id="svg" version="1.1" xmlns="http://www.w3.org/2000/svg" xmlns:xlink="http://www.w3.org/1999/xlink" width="400" height="69.66618287373005" viewBox="0, 0, 400,69.66618287373005"><g id="svgg"><path id="path0" d="M17.216 7.496 C 17.138 7.794,16.993 7.833,15.981 7.833 C 15.072 7.833,14.833 7.885,14.833 8.083 C 14.833 8.264,14.648 8.333,14.167 8.333 C 13.722 8.333,13.389 8.444,13.167 8.667 C 12.983 8.850,12.643 9.000,12.411 9.000 C 12.179 9.000,11.946 9.112,11.894 9.250 C 11.841 9.387,11.611 9.500,11.383 9.500 C 11.109 9.500,10.939 9.613,10.882 9.833 C 10.820 10.070,10.654 10.167,10.309 10.167 C 10.031 10.167,9.782 10.274,9.727 10.417 C 9.674 10.554,9.489 10.667,9.316 10.667 C 9.111 10.667,9.000 10.784,9.000 11.000 C 9.000 11.185,8.889 11.333,8.750 11.333 C 8.612 11.333,8.500 11.446,8.500 11.583 C 8.500 11.722,8.352 11.833,8.167 11.833 C 7.975 11.833,7.833 11.944,7.833 12.095 C 7.833 12.239,7.721 12.470,7.583 12.607 C 7.446 12.745,7.333 13.031,7.333 13.242 C 7.333 13.488,7.212 13.659,7.000 13.715 C 6.496 13.847,6.482 20.480,6.984 20.952 C 7.159 21.116,7.328 21.438,7.359 21.667 C 7.401 21.971,7.563 22.126,7.958 22.243 C 8.256 22.331,8.500 22.499,8.500 22.618 C 8.500 22.736,8.612 22.833,8.750 22.833 C 8.887 22.833,9.000 22.953,9.000 23.099 C 9.000 23.245,9.150 23.404,9.333 23.452 C 9.517 23.500,9.667 23.643,9.667 23.769 C 9.667 23.922,9.864 24.000,10.250 24.000 C 10.657 24.000,10.833 24.075,10.833 24.250 C 10.833 24.387,10.908 24.502,11.000 24.505 C 11.092 24.507,12.292 24.510,13.667 24.510 C 15.042 24.510,16.242 24.507,16.333 24.505 C 16.425 24.502,16.500 24.387,16.500 24.250 C 16.500 24.075,16.676 24.000,17.083 24.000 C 17.491 24.000,17.667 23.925,17.667 23.750 C 17.667 23.582,17.835 23.500,18.182 23.500 C 18.558 23.500,18.722 23.409,18.785 23.167 C 18.833 22.983,18.972 22.833,19.094 22.833 C 19.217 22.833,19.377 22.738,19.450 22.621 C 19.523 22.505,19.788 22.320,20.037 22.210 C 20.310 22.091,20.537 21.827,20.607 21.549 C 20.671 21.295,20.823 20.987,20.945 20.865 C 21.067 20.743,21.167 20.529,21.167 20.389 C 21.167 20.250,21.317 19.945,21.500 19.712 C 21.685 19.477,21.833 19.036,21.833 18.722 C 21.833 18.408,21.931 18.119,22.053 18.072 C 22.182 18.023,22.288 17.666,22.312 17.203 C 22.338 16.698,22.469 16.294,22.676 16.073 C 22.854 15.883,23.000 15.570,23.000 15.376 C 23.000 15.182,23.115 14.909,23.256 14.768 C 23.397 14.627,23.509 14.472,23.506 14.423 C 23.463 13.774,23.535 13.500,23.750 13.500 C 23.887 13.500,24.000 13.393,24.000 13.261 C 24.000 13.130,24.150 12.975,24.333 12.917 C 24.517 12.858,24.667 12.699,24.667 12.562 C 24.667 12.426,24.742 12.360,24.835 12.417 C 24.927 12.474,25.054 12.385,25.118 12.219 C 25.397 11.491,25.830 11.345,27.718 11.339 C 28.814 11.336,29.481 11.395,29.422 11.492 C 29.368 11.579,29.589 11.699,29.912 11.760 C 30.235 11.821,30.501 11.956,30.503 12.060 C 30.507 12.300,31.236 13.000,31.482 13.000 C 31.583 13.000,31.667 13.103,31.667 13.230 C 31.667 13.356,31.779 13.553,31.917 13.667 C 32.054 13.781,32.167 14.059,32.167 14.286 C 32.167 14.558,32.280 14.728,32.500 14.785 C 32.749 14.850,32.841 15.026,32.862 15.478 C 32.878 15.811,32.907 16.196,32.927 16.333 C 32.948 16.471,32.973 16.682,32.982 16.802 C 32.992 16.921,33.075 16.973,33.167 16.917 C 33.275 16.849,33.333 17.833,33.333 19.745 C 33.333 22.180,33.291 22.693,33.087 22.772 C 32.911 22.839,32.845 23.104,32.859 23.690 C 32.873 24.317,32.802 24.572,32.564 24.752 C 32.391 24.883,32.317 24.992,32.399 24.995 C 32.481 24.998,32.350 25.184,32.108 25.409 C 31.865 25.633,31.667 25.933,31.667 26.075 C 31.667 26.217,31.554 26.333,31.417 26.333 C 31.279 26.333,31.167 26.397,31.167 26.476 C 31.167 26.659,30.490 27.360,30.073 27.609 C 29.895 27.716,29.769 27.884,29.792 27.984 C 29.815 28.085,29.608 28.167,29.328 28.167 C 29.033 28.167,28.783 28.271,28.727 28.417 C 28.672 28.559,28.424 28.667,28.149 28.667 C 27.884 28.667,27.517 28.817,27.333 29.000 C 27.063 29.270,26.778 29.333,25.833 29.333 C 24.907 29.333,24.667 29.385,24.667 29.583 C 24.667 29.758,24.491 29.833,24.083 29.833 C 23.703 29.833,23.500 29.912,23.500 30.060 C 23.500 30.230,23.037 30.314,21.625 30.401 C 20.288 30.483,19.697 30.585,19.565 30.758 C 19.428 30.937,19.003 31.000,17.940 31.000 C 16.771 31.000,16.500 31.047,16.500 31.250 C 16.500 31.445,16.272 31.500,15.458 31.502 C 14.189 31.505,13.667 31.632,13.667 31.936 C 13.667 32.098,13.443 32.167,12.911 32.167 C 12.394 32.167,12.126 32.245,12.060 32.417 C 12.002 32.570,11.749 32.667,11.410 32.667 C 11.002 32.667,10.828 32.755,10.750 33.000 C 10.676 33.234,10.498 33.333,10.155 33.333 C 9.832 33.333,9.667 33.418,9.667 33.583 C 9.667 33.722,9.519 33.833,9.333 33.833 C 9.111 33.833,9.000 33.944,9.000 34.167 C 9.000 34.437,8.889 34.500,8.417 34.500 C 8.029 34.500,7.833 34.578,7.833 34.732 C 7.833 34.860,7.721 35.008,7.583 35.060 C 7.446 35.113,7.333 35.271,7.333 35.411 C 7.333 35.556,7.188 35.667,7.000 35.667 C 6.817 35.667,6.667 35.771,6.667 35.899 C 6.667 36.027,6.554 36.174,6.417 36.227 C 6.279 36.280,6.167 36.438,6.167 36.578 C 6.167 36.722,6.022 36.833,5.833 36.833 C 5.650 36.833,5.500 36.938,5.500 37.066 C 5.500 37.193,5.387 37.341,5.250 37.394 C 5.112 37.446,5.000 37.641,5.000 37.827 C 5.000 38.012,4.850 38.258,4.667 38.372 C 4.483 38.487,4.333 38.712,4.333 38.873 C 4.333 39.035,4.221 39.167,4.083 39.167 C 3.909 39.167,3.833 39.343,3.833 39.750 C 3.833 40.228,3.771 40.333,3.490 40.333 C 3.289 40.333,3.193 40.407,3.257 40.511 C 3.318 40.609,3.208 40.731,3.011 40.782 C 2.577 40.896,2.525 51.795,2.958 51.708 C 3.144 51.671,3.251 52.000,3.181 52.393 C 3.140 52.618,3.522 53.006,3.686 52.905 C 3.767 52.855,3.833 53.118,3.833 53.490 C 3.833 53.980,3.902 54.167,4.083 54.167 C 4.221 54.167,4.333 54.279,4.333 54.417 C 4.333 54.556,4.481 54.667,4.667 54.667 C 4.937 54.667,5.000 54.778,5.000 55.250 C 5.000 55.657,5.075 55.833,5.250 55.833 C 5.389 55.833,5.500 55.981,5.500 56.167 C 5.500 56.389,5.611 56.500,5.833 56.500 C 6.019 56.500,6.167 56.611,6.167 56.750 C 6.167 56.887,6.270 57.000,6.397 57.000 C 6.524 57.000,6.667 57.150,6.715 57.333 C 6.763 57.517,6.922 57.667,7.068 57.667 C 7.214 57.667,7.333 57.779,7.333 57.917 C 7.333 58.054,7.446 58.167,7.583 58.167 C 7.722 58.167,7.833 58.315,7.833 58.500 C 7.833 58.722,7.944 58.833,8.167 58.833 C 8.352 58.833,8.500 58.944,8.500 59.083 C 8.500 59.249,8.665 59.333,8.989 59.333 C 9.331 59.333,9.509 59.433,9.583 59.667 C 9.642 59.850,9.797 60.000,9.928 60.000 C 10.059 60.000,10.167 60.112,10.167 60.250 C 10.167 60.423,10.340 60.500,10.731 60.500 C 11.154 60.500,11.316 60.583,11.382 60.833 C 11.445 61.077,11.609 61.167,11.990 61.167 C 12.299 61.167,12.549 61.268,12.606 61.417 C 12.671 61.586,12.937 61.667,13.426 61.667 C 13.942 61.667,14.197 61.750,14.313 61.958 C 14.589 62.451,26.822 62.497,26.950 62.006 C 27.028 61.710,27.173 61.667,28.089 61.667 C 28.748 61.667,29.163 61.593,29.205 61.470 C 29.241 61.362,29.528 61.183,29.843 61.073 C 30.159 60.963,30.398 60.789,30.375 60.687 C 30.352 60.584,30.483 60.500,30.667 60.500 C 30.852 60.500,31.000 60.389,31.000 60.250 C 31.000 60.032,31.430 59.904,31.889 59.985 C 31.966 59.999,32.068 59.857,32.117 59.671 C 32.166 59.485,32.335 59.333,32.493 59.333 C 32.752 59.333,33.573 58.731,34.367 57.958 C 34.734 57.601,35.167 57.578,35.167 57.917 C 35.167 58.054,35.270 58.167,35.397 58.167 C 35.524 58.167,35.667 58.317,35.715 58.500 C 35.763 58.683,35.922 58.833,36.068 58.833 C 36.214 58.833,36.333 58.946,36.333 59.083 C 36.333 59.221,36.437 59.333,36.564 59.333 C 36.691 59.333,36.834 59.483,36.882 59.667 C 36.930 59.850,37.088 60.000,37.234 60.000 C 37.380 60.000,37.500 60.112,37.500 60.250 C 37.500 60.387,37.612 60.500,37.750 60.500 C 37.887 60.500,38.000 60.570,38.000 60.655 C 38.000 60.741,38.150 60.858,38.333 60.917 C 38.517 60.975,38.667 61.121,38.667 61.242 C 38.667 61.516,39.190 61.661,40.189 61.664 C 40.820 61.666,40.977 61.728,41.048 62.000 C 41.201 62.585,49.500 62.484,49.500 61.897 C 49.500 61.736,49.721 61.667,50.238 61.667 C 50.672 61.667,51.079 61.564,51.226 61.417 C 51.364 61.279,51.676 61.167,51.920 61.167 C 52.224 61.167,52.392 61.061,52.452 60.833 C 52.507 60.621,52.679 60.500,52.924 60.500 C 53.136 60.500,53.409 60.402,53.530 60.282 C 53.651 60.163,53.881 60.015,54.042 59.954 C 54.202 59.893,54.333 59.729,54.333 59.589 C 54.333 59.448,54.446 59.333,54.583 59.333 C 54.721 59.333,54.833 59.221,54.833 59.083 C 54.833 58.946,54.948 58.833,55.089 58.833 C 55.229 58.833,55.393 58.702,55.454 58.542 C 55.515 58.381,55.663 58.151,55.782 58.030 C 55.902 57.909,56.000 57.636,56.000 57.424 C 56.000 57.179,56.121 57.007,56.333 56.952 C 56.809 56.827,56.822 55.509,56.349 55.386 C 56.174 55.340,55.993 55.159,55.948 54.985 C 55.871 54.692,55.689 54.667,53.675 54.667 C 52.437 54.667,51.399 54.593,51.285 54.497 C 50.348 53.709,50.166 53.475,50.164 53.050 C 50.161 52.381,49.987 51.822,49.814 51.928 C 49.529 52.105,49.631 41.404,49.917 41.167 C 50.115 41.002,50.167 40.519,50.167 38.831 C 50.167 36.907,50.195 36.706,50.458 36.727 C 50.731 36.748,50.753 36.314,50.798 30.083 C 50.848 23.108,50.809 22.333,50.409 22.333 C 50.222 22.333,50.167 22.088,50.167 21.258 C 50.167 20.496,50.097 20.144,49.927 20.049 C 49.770 19.961,49.674 19.585,49.649 18.963 C 49.609 17.975,49.485 17.598,49.231 17.694 C 49.150 17.725,49.060 17.469,49.032 17.125 C 48.998 16.716,48.897 16.500,48.740 16.500 C 48.595 16.500,48.500 16.335,48.500 16.083 C 48.500 15.854,48.486 15.610,48.470 15.542 C 48.424 15.353,47.723 14.833,47.515 14.833 C 47.415 14.833,47.333 14.601,47.333 14.318 C 47.333 13.942,47.243 13.778,47.000 13.715 C 46.816 13.667,46.667 13.488,46.667 13.314 C 46.667 13.141,46.562 13.000,46.434 13.000 C 46.307 13.000,46.159 12.887,46.106 12.750 C 46.054 12.612,45.896 12.500,45.755 12.500 C 45.609 12.500,45.500 12.354,45.500 12.157 C 45.500 11.956,45.426 11.859,45.322 11.924 C 45.224 11.984,45.103 11.876,45.053 11.683 C 44.982 11.415,44.830 11.333,44.397 11.333 C 43.944 11.333,43.833 11.268,43.833 11.000 C 43.833 10.778,43.722 10.667,43.500 10.667 C 43.315 10.667,43.167 10.556,43.167 10.417 C 43.167 10.255,43.004 10.167,42.707 10.167 C 42.427 10.167,42.165 10.036,42.039 9.833 C 41.924 9.650,41.653 9.500,41.436 9.500 C 41.218 9.500,40.947 9.387,40.833 9.250 C 40.708 9.099,40.344 9.000,39.916 9.000 C 39.346 9.000,39.188 8.934,39.118 8.667 C 39.056 8.428,38.891 8.333,38.536 8.333 C 38.264 8.333,37.947 8.221,37.833 8.083 C 37.685 7.905,37.293 7.833,36.456 7.833 C 35.535 7.833,35.242 7.771,35.074 7.542 C 34.714 7.050,17.344 7.005,17.216 7.496 M34.000 39.647 C 34.000 48.821,33.995 48.962,33.667 49.048 C 33.388 49.121,33.333 49.276,33.333 49.984 C 33.333 50.575,33.270 50.821,33.125 50.792 C 32.985 50.764,32.900 51.030,32.867 51.608 C 32.827 52.294,32.752 52.482,32.492 52.550 C 32.279 52.606,32.167 52.779,32.167 53.050 C 32.167 53.278,32.054 53.508,31.917 53.560 C 31.779 53.613,31.667 53.771,31.667 53.911 C 31.667 54.052,31.552 54.167,31.411 54.167 C 31.271 54.167,31.113 54.279,31.060 54.417 C 31.008 54.554,30.822 54.667,30.647 54.667 C 30.473 54.667,30.202 54.817,30.045 55.000 C 29.783 55.306,29.553 55.333,27.232 55.333 C 24.846 55.333,24.701 55.315,24.618 55.000 C 24.555 54.757,24.391 54.667,24.016 54.667 C 23.732 54.667,23.500 54.596,23.500 54.509 C 23.500 54.279,22.745 53.500,22.523 53.500 C 22.418 53.500,22.333 53.387,22.333 53.250 C 22.333 53.112,22.221 53.000,22.083 53.000 C 21.915 53.000,21.833 52.832,21.833 52.484 C 21.833 52.109,21.743 51.945,21.500 51.882 C 21.224 51.809,21.167 51.654,21.167 50.981 C 21.167 50.318,21.113 50.166,20.875 50.164 C 20.648 50.162,20.633 50.130,20.809 50.018 C 20.967 49.918,20.980 49.840,20.851 49.761 C 20.538 49.568,20.601 44.833,20.917 44.833 C 21.054 44.833,21.158 44.777,21.147 44.708 C 21.023 43.924,21.200 42.500,21.422 42.500 C 21.562 42.500,21.727 42.369,21.788 42.208 C 21.848 42.048,21.996 41.818,22.116 41.696 C 22.235 41.575,22.335 41.350,22.338 41.196 C 22.340 41.043,22.601 40.729,22.917 40.500 C 23.232 40.271,23.493 39.990,23.495 39.875 C 23.498 39.760,23.572 39.667,23.659 39.667 C 23.747 39.667,24.009 39.476,24.242 39.242 C 24.476 39.009,24.667 38.747,24.667 38.659 C 24.667 38.572,24.771 38.500,24.899 38.500 C 25.027 38.500,25.174 38.387,25.227 38.250 C 25.280 38.112,25.438 38.000,25.578 38.000 C 25.722 38.000,25.833 37.855,25.833 37.667 C 25.833 37.483,25.927 37.331,26.042 37.328 C 26.366 37.319,27.000 36.726,27.000 36.432 C 27.000 36.286,27.113 36.167,27.250 36.167 C 27.387 36.167,27.500 36.094,27.500 36.005 C 27.500 35.916,27.605 35.884,27.734 35.934 C 27.893 35.994,28.005 35.858,28.081 35.512 C 28.143 35.230,28.300 35.000,28.430 35.000 C 28.560 35.000,28.667 34.927,28.667 34.839 C 28.667 34.750,28.762 34.714,28.879 34.759 C 28.995 34.803,29.225 34.613,29.388 34.337 C 29.590 33.995,29.816 33.833,30.093 33.833 C 30.344 33.833,30.500 33.737,30.500 33.583 C 30.500 33.446,30.613 33.333,30.750 33.333 C 30.889 33.333,31.000 33.185,31.000 33.000 C 31.000 32.778,31.111 32.667,31.333 32.667 C 31.519 32.667,31.667 32.556,31.667 32.417 C 31.667 32.279,31.779 32.167,31.917 32.167 C 32.056 32.167,32.167 32.019,32.167 31.833 C 32.167 31.611,32.278 31.500,32.500 31.500 C 32.685 31.500,32.833 31.389,32.833 31.250 C 32.833 31.113,32.946 31.000,33.083 31.000 C 33.222 31.000,33.333 30.852,33.333 30.667 C 33.333 30.444,33.444 30.333,33.667 30.333 C 33.996 30.333,34.000 30.444,34.000 39.647 " stroke="none" fill="#04b4ac" fill-rule="evenodd"></path><path id="path1" d="M117.845 17.606 C 117.250 18.363,117.321 50.000,117.918 50.000 C 118.033 50.000,118.167 50.150,118.215 50.333 C 118.331 50.777,124.500 50.864,124.500 50.423 C 124.500 50.288,124.650 50.098,124.833 50.000 C 125.159 49.826,125.167 49.651,125.167 42.679 C 125.167 36.483,125.200 35.523,125.417 35.440 C 125.554 35.387,125.667 35.154,125.667 34.922 C 125.667 34.610,125.754 34.500,126.002 34.500 C 126.186 34.500,126.465 34.350,126.622 34.167 C 126.779 33.983,127.003 33.833,127.120 33.833 C 127.238 33.833,127.333 33.721,127.333 33.583 C 127.333 33.446,127.477 33.333,127.653 33.333 C 128.150 33.333,128.500 33.154,128.500 32.899 C 128.500 32.498,129.775 32.591,129.882 33.000 C 129.945 33.243,130.109 33.333,130.484 33.333 C 130.832 33.333,131.000 33.415,131.000 33.583 C 131.000 33.721,131.112 33.833,131.250 33.833 C 131.435 33.833,131.500 34.027,131.500 34.575 C 131.500 35.054,131.587 35.365,131.745 35.454 C 131.953 35.570,131.997 36.662,132.036 42.754 L 132.083 49.917 132.458 50.292 C 132.989 50.822,138.001 50.863,138.625 50.343 L 139.000 50.030 139.000 41.035 C 139.000 33.244,138.967 32.013,138.750 31.833 C 138.612 31.719,138.500 31.375,138.500 31.069 C 138.500 30.682,138.398 30.457,138.167 30.333 C 137.972 30.229,137.833 29.984,137.833 29.744 C 137.833 29.490,137.738 29.333,137.583 29.333 C 137.446 29.333,137.333 29.230,137.333 29.103 C 137.333 28.659,135.994 27.500,135.480 27.500 C 135.164 27.500,135.000 27.414,135.000 27.250 C 135.000 27.077,134.826 27.000,134.436 27.000 C 134.012 27.000,133.851 26.917,133.785 26.667 C 133.702 26.350,133.558 26.333,130.917 26.333 C 128.276 26.333,128.131 26.350,128.048 26.667 C 127.983 26.917,127.821 27.000,127.397 27.000 C 127.007 27.000,126.833 27.077,126.833 27.250 C 126.833 27.418,126.665 27.500,126.318 27.500 C 125.988 27.500,125.691 27.635,125.491 27.875 C 125.183 28.243,125.178 28.160,125.170 23.083 C 125.166 20.242,125.117 17.748,125.062 17.542 C 124.962 17.168,124.946 17.167,121.576 17.167 L 118.191 17.167 117.845 17.606 M180.939 17.418 C 180.677 17.555,180.289 17.667,180.078 17.667 C 179.521 17.667,179.167 17.835,179.167 18.101 C 179.167 18.229,179.056 18.333,178.920 18.333 C 178.784 18.333,178.627 18.518,178.570 18.743 C 178.514 18.969,178.362 19.240,178.234 19.347 C 177.500 19.956,178.081 24.000,178.902 24.000 C 179.056 24.000,179.167 24.140,179.167 24.333 C 179.167 24.517,179.271 24.667,179.399 24.667 C 179.527 24.667,179.674 24.779,179.727 24.917 C 179.806 25.124,180.255 25.167,182.328 25.167 C 184.444 25.167,184.833 25.128,184.833 24.917 C 184.833 24.779,184.934 24.667,185.058 24.667 C 185.181 24.667,185.594 24.324,185.974 23.906 L 186.667 23.145 186.667 21.324 C 186.667 19.683,186.634 19.482,186.333 19.295 C 186.150 19.180,186.000 18.917,186.000 18.710 C 186.000 18.503,185.904 18.333,185.787 18.333 C 185.670 18.333,185.446 18.183,185.289 18.000 C 185.132 17.817,184.824 17.667,184.604 17.667 C 184.384 17.667,183.990 17.555,183.727 17.418 C 183.465 17.281,182.838 17.169,182.333 17.169 C 181.829 17.169,181.202 17.281,180.939 17.418 M252.333 33.583 C 252.333 47.450,252.369 50.000,252.564 50.000 C 252.691 50.000,252.834 50.150,252.882 50.333 C 253.014 50.839,258.982 50.854,259.114 50.349 C 259.160 50.174,259.341 49.993,259.515 49.948 C 259.822 49.867,259.833 49.607,259.833 42.611 C 259.833 36.385,259.869 35.322,260.083 35.107 C 260.221 34.970,260.333 34.777,260.333 34.679 C 260.333 34.580,260.483 34.500,260.667 34.500 C 260.889 34.500,261.000 34.389,261.000 34.167 C 261.000 33.981,261.111 33.833,261.250 33.833 C 261.387 33.833,261.500 33.721,261.500 33.583 C 261.500 33.409,261.676 33.333,262.083 33.333 C 262.556 33.333,262.667 33.270,262.667 33.000 C 262.667 32.707,262.778 32.667,263.583 32.667 C 264.389 32.667,264.500 32.707,264.500 33.000 C 264.500 33.270,264.611 33.333,265.083 33.333 C 265.615 33.333,265.667 33.376,265.667 33.813 C 265.667 34.077,265.779 34.386,265.917 34.500 C 266.132 34.679,266.167 35.733,266.167 42.104 C 266.167 49.278,266.177 49.510,266.500 49.833 C 266.683 50.017,266.833 50.234,266.833 50.316 C 266.833 50.875,272.776 50.843,273.304 50.281 L 273.667 49.895 273.667 41.063 C 273.667 33.555,273.630 32.182,273.422 31.907 C 273.287 31.729,273.175 31.340,273.172 31.043 C 273.168 30.687,273.053 30.432,272.833 30.295 C 272.650 30.180,272.500 29.917,272.500 29.710 C 272.500 29.486,272.398 29.333,272.250 29.333 C 272.111 29.333,272.000 29.185,272.000 29.000 C 272.000 28.778,271.889 28.667,271.667 28.667 C 271.481 28.667,271.333 28.556,271.333 28.417 C 271.333 28.279,271.230 28.167,271.103 28.167 C 270.976 28.167,270.833 28.017,270.785 27.833 C 270.722 27.591,270.558 27.500,270.182 27.500 C 269.835 27.500,269.667 27.418,269.667 27.250 C 269.667 27.077,269.493 27.000,269.103 27.000 C 268.679 27.000,268.517 26.917,268.452 26.667 C 268.369 26.350,268.224 26.333,265.583 26.333 C 262.942 26.333,262.798 26.350,262.715 26.667 C 262.649 26.917,262.488 27.000,262.064 27.000 C 261.674 27.000,261.500 27.077,261.500 27.250 C 261.500 27.424,261.325 27.500,260.928 27.500 C 260.502 27.500,260.329 27.585,260.250 27.833 C 259.927 28.851,259.833 27.763,259.833 22.989 C 259.833 19.739,259.769 17.691,259.661 17.489 C 259.498 17.186,259.277 17.167,255.911 17.167 L 252.333 17.167 252.333 33.583 M327.667 33.583 C 327.667 53.143,327.149 50.667,331.238 50.667 C 334.333 50.667,334.667 50.584,334.667 49.816 C 334.667 49.637,334.781 49.446,334.920 49.392 C 335.141 49.307,335.173 48.433,335.169 42.523 C 335.164 35.612,335.199 35.000,335.603 35.000 C 335.730 35.000,335.833 34.887,335.833 34.750 C 335.833 34.612,335.941 34.500,336.072 34.500 C 336.203 34.500,336.358 34.350,336.417 34.167 C 336.475 33.983,336.630 33.833,336.761 33.833 C 336.893 33.833,337.000 33.721,337.000 33.583 C 337.000 33.415,337.168 33.333,337.516 33.333 C 337.891 33.333,338.055 33.243,338.118 33.000 C 338.189 32.731,338.346 32.667,338.930 32.667 C 339.484 32.667,339.697 32.745,339.833 33.000 C 339.931 33.183,340.122 33.333,340.256 33.333 C 340.390 33.333,340.500 33.446,340.500 33.583 C 340.500 33.721,340.604 33.833,340.731 33.833 C 341.164 33.833,341.217 34.590,341.287 41.750 C 341.327 45.819,341.425 48.985,341.512 49.075 C 341.597 49.162,341.667 49.401,341.667 49.605 C 341.667 49.831,341.798 50.019,342.000 50.083 C 342.183 50.142,342.333 50.297,342.333 50.428 C 342.333 50.855,347.825 50.769,348.379 50.333 C 348.612 50.150,348.884 50.000,348.985 50.000 C 349.283 50.000,349.237 33.058,348.938 32.883 C 348.803 32.804,348.678 32.350,348.631 31.767 C 348.578 31.115,348.459 30.715,348.276 30.582 C 348.124 30.471,348.000 30.257,348.000 30.107 C 348.000 29.956,347.923 29.833,347.830 29.833 C 347.736 29.833,347.567 29.630,347.455 29.381 C 347.240 28.908,346.621 28.167,346.439 28.167 C 346.381 28.167,346.183 28.017,346.000 27.833 C 345.817 27.650,345.554 27.500,345.417 27.500 C 345.279 27.500,345.167 27.387,345.167 27.250 C 345.167 27.079,344.995 27.000,344.620 27.000 C 344.280 27.000,343.966 26.874,343.789 26.667 C 343.523 26.357,343.297 26.333,340.585 26.333 C 337.778 26.333,337.667 26.346,337.667 26.667 C 337.667 26.937,337.556 27.000,337.083 27.000 C 336.676 27.000,336.500 27.075,336.500 27.250 C 336.500 27.417,336.333 27.500,335.995 27.500 C 335.626 27.500,335.448 27.602,335.339 27.875 C 335.243 28.112,335.184 26.432,335.177 23.312 C 335.168 19.135,335.128 18.342,334.917 18.167 C 334.779 18.053,334.667 17.781,334.667 17.563 L 334.667 17.167 331.167 17.167 L 327.667 17.167 327.667 33.583 M237.833 18.583 C 237.833 18.782,237.593 18.833,236.667 18.833 C 235.789 18.833,235.500 18.890,235.500 19.062 C 235.500 19.210,235.209 19.329,234.672 19.400 C 234.217 19.461,233.786 19.602,233.714 19.714 C 233.642 19.825,233.227 20.091,232.792 20.304 C 232.356 20.516,232.000 20.797,232.000 20.928 C 232.000 21.059,231.850 21.167,231.667 21.167 C 231.481 21.167,231.333 21.278,231.333 21.417 C 231.333 21.554,231.221 21.667,231.083 21.667 C 230.944 21.667,230.833 21.815,230.833 22.000 C 230.833 22.222,230.722 22.333,230.500 22.333 C 230.315 22.333,230.167 22.444,230.167 22.583 C 230.167 22.721,230.054 22.833,229.917 22.833 C 229.778 22.833,229.667 22.981,229.667 23.167 C 229.667 23.389,229.556 23.500,229.333 23.500 C 229.148 23.500,229.000 23.611,229.000 23.750 C 229.000 23.887,228.887 24.000,228.750 24.000 C 228.611 24.000,228.500 24.148,228.500 24.333 C 228.500 24.517,228.396 24.667,228.268 24.667 C 228.013 24.667,227.833 25.017,227.833 25.514 C 227.833 25.689,227.721 25.833,227.583 25.833 C 227.410 25.833,227.333 26.007,227.333 26.397 C 227.333 26.821,227.250 26.983,227.000 27.048 C 226.735 27.118,226.667 27.276,226.667 27.823 C 226.667 28.280,226.583 28.543,226.417 28.606 C 226.236 28.676,226.167 28.959,226.167 29.630 C 226.167 30.279,226.079 30.654,225.875 30.880 C 225.614 31.168,225.583 31.633,225.583 35.334 C 225.583 39.035,225.614 39.499,225.875 39.787 C 226.085 40.020,226.167 40.391,226.167 41.118 C 226.167 41.811,226.245 42.191,226.417 42.333 C 226.554 42.447,226.667 42.764,226.667 43.036 C 226.667 43.391,226.761 43.556,227.000 43.618 C 227.250 43.684,227.333 43.846,227.333 44.269 C 227.333 44.660,227.410 44.833,227.583 44.833 C 227.722 44.833,227.833 44.981,227.833 45.167 C 227.833 45.350,227.970 45.637,228.138 45.804 C 228.305 45.972,228.490 46.234,228.549 46.388 C 228.608 46.541,228.734 46.667,228.828 46.667 C 228.923 46.667,229.000 46.779,229.000 46.917 C 229.000 47.056,229.148 47.167,229.333 47.167 C 229.522 47.167,229.667 47.278,229.667 47.422 C 229.667 47.562,229.779 47.720,229.917 47.773 C 230.054 47.826,230.167 47.973,230.167 48.101 C 230.167 48.229,230.317 48.333,230.500 48.333 C 230.683 48.333,230.833 48.412,230.833 48.508 C 230.833 48.798,231.725 49.489,232.107 49.495 C 232.304 49.498,232.506 49.608,232.557 49.741 C 232.608 49.873,232.910 50.031,233.230 50.091 C 233.549 50.150,233.851 50.305,233.900 50.433 C 234.031 50.775,245.753 50.782,245.885 50.440 C 245.932 50.316,246.281 50.164,246.659 50.104 C 247.037 50.043,247.389 49.883,247.441 49.747 C 247.493 49.611,247.678 49.500,247.851 49.500 C 248.025 49.500,248.167 49.387,248.167 49.250 C 248.167 49.112,248.252 49.000,248.356 49.000 C 248.646 49.000,249.333 48.188,249.333 47.845 C 249.333 47.678,249.446 47.447,249.583 47.333 C 249.934 47.042,249.944 43.801,249.596 43.453 C 249.465 43.322,249.334 42.961,249.304 42.649 L 249.250 42.083 248.125 42.034 C 247.225 41.995,247.000 42.034,247.000 42.229 C 247.000 42.364,246.781 42.522,246.514 42.580 C 246.247 42.639,245.986 42.795,245.936 42.927 C 245.885 43.059,245.729 43.167,245.589 43.167 C 245.448 43.167,245.333 43.279,245.333 43.417 C 245.333 43.585,245.165 43.667,244.818 43.667 C 244.442 43.667,244.278 43.757,244.215 44.000 C 244.139 44.290,243.988 44.333,243.059 44.333 C 242.262 44.333,241.965 44.397,241.894 44.583 C 241.758 44.936,240.075 44.936,239.940 44.583 C 239.874 44.412,239.606 44.333,239.083 44.333 C 238.575 44.333,238.292 44.254,238.231 44.094 C 238.180 43.962,237.926 43.807,237.667 43.750 C 237.407 43.693,237.153 43.538,237.102 43.406 C 237.052 43.275,236.896 43.167,236.755 43.167 C 236.615 43.167,236.500 43.054,236.500 42.917 C 236.500 42.779,236.396 42.667,236.269 42.667 C 236.143 42.667,236.000 42.517,235.952 42.333 C 235.904 42.150,235.745 42.000,235.599 42.000 C 235.453 42.000,235.333 41.887,235.333 41.750 C 235.333 41.612,235.231 41.500,235.105 41.500 C 234.956 41.500,234.846 41.225,234.788 40.714 C 234.739 40.281,234.617 39.900,234.516 39.867 C 234.416 39.833,234.332 39.568,234.331 39.278 C 234.328 38.499,234.158 38.000,233.897 38.000 C 233.517 38.000,233.564 32.362,233.946 32.082 C 234.137 31.943,234.249 31.556,234.299 30.856 C 234.352 30.133,234.441 29.833,234.603 29.833 C 234.755 29.833,234.833 29.635,234.833 29.250 C 234.833 28.843,234.909 28.667,235.083 28.667 C 235.222 28.667,235.333 28.519,235.333 28.333 C 235.333 28.150,235.427 27.998,235.542 27.995 C 235.656 27.993,235.938 27.732,236.167 27.417 C 236.396 27.101,236.679 26.840,236.797 26.838 C 236.914 26.835,237.054 26.721,237.106 26.583 C 237.159 26.446,237.307 26.333,237.434 26.333 C 237.562 26.333,237.667 26.231,237.667 26.105 C 237.667 25.957,237.940 25.846,238.448 25.789 C 238.886 25.739,239.316 25.583,239.425 25.434 C 239.708 25.046,242.250 25.046,242.467 25.434 C 242.557 25.595,242.925 25.737,243.391 25.789 C 243.894 25.846,244.167 25.957,244.167 26.105 C 244.167 26.255,244.367 26.333,244.750 26.333 C 245.157 26.333,245.333 26.409,245.333 26.583 C 245.333 26.721,245.448 26.833,245.589 26.833 C 245.729 26.833,245.885 26.941,245.936 27.073 C 245.986 27.205,246.252 27.362,246.525 27.422 C 246.799 27.482,247.063 27.637,247.112 27.766 C 247.229 28.068,248.436 28.079,248.617 27.779 C 248.690 27.658,248.881 27.510,249.042 27.451 C 249.289 27.360,249.333 27.122,249.333 25.872 C 249.333 25.034,249.411 24.322,249.515 24.219 C 249.645 24.088,249.645 24.006,249.515 23.926 C 249.410 23.861,249.333 23.282,249.333 22.558 C 249.333 21.442,249.296 21.292,249.000 21.215 C 248.817 21.167,248.667 21.030,248.667 20.910 C 248.667 20.791,248.448 20.645,248.181 20.586 C 247.913 20.528,247.653 20.372,247.602 20.240 C 247.552 20.108,247.390 20.000,247.243 20.000 C 247.096 20.000,246.864 19.888,246.726 19.750 C 246.589 19.613,246.182 19.453,245.822 19.395 C 245.429 19.333,245.167 19.199,245.167 19.062 C 245.167 18.890,244.878 18.833,244.000 18.833 C 243.074 18.833,242.833 18.782,242.833 18.583 C 242.833 18.372,242.444 18.333,240.333 18.333 C 238.222 18.333,237.833 18.372,237.833 18.583 M78.211 19.167 C 78.054 19.350,77.830 19.500,77.713 19.500 C 77.596 19.500,77.500 19.604,77.500 19.732 C 77.500 19.860,77.387 20.008,77.250 20.060 C 77.089 20.122,77.000 20.380,77.000 20.788 C 77.000 21.239,76.905 21.479,76.667 21.628 C 76.406 21.791,76.333 22.017,76.333 22.668 C 76.333 23.296,76.272 23.500,76.083 23.500 C 75.895 23.500,75.833 23.702,75.833 24.314 C 75.833 24.988,75.776 25.143,75.500 25.215 C 75.222 25.288,75.167 25.442,75.167 26.151 C 75.167 26.795,75.106 27.000,74.917 27.000 C 74.744 27.000,74.667 27.173,74.667 27.558 C 74.667 27.903,74.540 28.230,74.333 28.417 C 74.131 28.600,74.000 28.930,74.000 29.258 C 74.000 29.584,73.901 29.836,73.750 29.894 C 73.579 29.959,73.500 30.226,73.500 30.734 C 73.500 31.331,73.434 31.498,73.167 31.583 C 72.921 31.661,72.833 31.836,72.833 32.243 C 72.833 32.582,72.736 32.835,72.583 32.894 C 72.413 32.959,72.333 33.225,72.333 33.725 C 72.333 34.321,72.270 34.478,72.000 34.548 C 71.729 34.619,71.667 34.776,71.667 35.383 C 71.667 35.894,71.587 36.161,71.417 36.227 C 71.271 36.283,71.167 36.533,71.167 36.828 C 71.167 37.111,71.020 37.480,70.833 37.667 C 70.631 37.869,70.500 38.222,70.500 38.566 C 70.500 38.914,70.404 39.168,70.250 39.227 C 70.083 39.291,70.000 39.554,70.000 40.018 C 70.000 40.463,69.904 40.783,69.733 40.908 C 69.584 41.018,69.427 41.447,69.378 41.885 C 69.321 42.393,69.210 42.667,69.062 42.667 C 68.899 42.667,68.833 42.906,68.833 43.500 C 68.833 44.101,68.769 44.333,68.601 44.333 C 68.323 44.333,68.167 44.691,68.167 45.327 C 68.167 45.583,68.052 45.888,67.912 46.004 C 67.703 46.178,67.666 46.604,67.704 48.399 L 67.750 50.583 70.719 50.629 L 73.688 50.674 74.178 50.213 C 74.447 49.959,74.667 49.629,74.667 49.479 C 74.667 49.330,74.779 49.114,74.917 49.000 C 75.054 48.886,75.167 48.564,75.167 48.284 C 75.167 48.005,75.288 47.642,75.436 47.478 C 75.585 47.314,75.744 46.841,75.791 46.426 C 75.838 46.011,75.979 45.587,76.105 45.482 C 76.230 45.378,76.333 45.077,76.333 44.813 C 76.333 43.691,76.452 43.667,81.917 43.667 C 86.722 43.667,86.833 43.674,86.833 44.000 C 86.833 44.185,86.944 44.333,87.083 44.333 C 87.269 44.333,87.333 44.530,87.333 45.099 C 87.333 45.724,87.394 45.880,87.667 45.952 C 87.943 46.024,88.000 46.179,88.000 46.858 C 88.000 47.432,88.075 47.706,88.250 47.773 C 88.421 47.839,88.500 48.106,88.500 48.617 C 88.500 49.224,88.562 49.381,88.833 49.452 C 89.069 49.513,89.167 49.679,89.167 50.016 C 89.167 50.668,89.354 50.697,93.143 50.635 C 96.880 50.575,96.660 50.696,96.664 48.693 C 96.666 47.441,96.633 47.293,96.333 47.215 C 96.063 47.144,96.000 46.988,96.000 46.392 C 96.000 45.892,95.920 45.625,95.750 45.560 C 95.588 45.498,95.500 45.240,95.500 44.827 C 95.500 44.477,95.388 44.078,95.250 43.940 C 95.112 43.803,95.000 43.539,95.000 43.353 C 95.000 42.931,94.660 42.167,94.473 42.167 C 94.396 42.167,94.333 41.872,94.333 41.512 C 94.333 41.152,94.221 40.745,94.083 40.607 C 93.946 40.470,93.833 40.208,93.833 40.026 C 93.833 39.518,93.656 39.167,93.399 39.167 C 93.231 39.167,93.167 38.934,93.167 38.328 C 93.167 37.769,93.090 37.460,92.937 37.401 C 92.808 37.352,92.659 36.951,92.598 36.490 C 92.523 35.928,92.411 35.667,92.244 35.667 C 92.076 35.667,92.000 35.485,92.000 35.083 C 92.000 34.676,91.925 34.500,91.750 34.500 C 91.569 34.500,91.500 34.315,91.500 33.833 C 91.500 33.389,91.389 33.056,91.167 32.833 C 90.944 32.610,90.833 32.278,90.833 31.828 C 90.833 31.411,90.746 31.123,90.604 31.068 C 90.464 31.014,90.330 30.590,90.261 29.981 C 90.189 29.347,90.060 28.949,89.907 28.890 C 89.749 28.829,89.667 28.552,89.667 28.077 C 89.667 27.659,89.562 27.252,89.417 27.107 C 89.279 26.970,89.167 26.676,89.167 26.454 C 89.167 26.233,89.017 25.916,88.833 25.750 C 88.609 25.547,88.500 25.237,88.500 24.802 C 88.500 24.382,88.413 24.123,88.250 24.060 C 88.112 24.008,87.999 23.766,87.998 23.524 C 87.994 22.827,87.814 22.333,87.564 22.333 C 87.402 22.333,87.333 22.112,87.333 21.592 C 87.333 21.175,87.241 20.791,87.123 20.717 C 87.007 20.643,86.838 20.364,86.748 20.097 C 86.639 19.777,86.413 19.555,86.083 19.448 C 85.808 19.358,85.523 19.183,85.450 19.059 C 85.203 18.642,78.576 18.740,78.211 19.167 M8.750 23.167 C 8.916 23.350,9.071 23.500,9.094 23.500 C 9.117 23.500,9.096 23.350,9.048 23.167 C 9.000 22.983,8.846 22.833,8.705 22.833 C 8.489 22.833,8.496 22.886,8.750 23.167 M12.458 24.624 C 13.123 24.655,14.210 24.655,14.875 24.624 C 15.540 24.592,14.996 24.566,13.667 24.566 C 12.338 24.566,11.794 24.592,12.458 24.624 M103.458 26.448 C 103.298 26.490,103.167 26.631,103.167 26.762 C 103.167 26.927,102.969 27.000,102.518 27.000 C 102.095 27.000,101.836 27.087,101.773 27.250 C 101.720 27.387,101.488 27.500,101.257 27.500 C 101.017 27.500,100.747 27.643,100.628 27.833 C 100.513 28.017,100.306 28.167,100.166 28.167 C 100.027 28.167,99.746 28.373,99.541 28.625 C 98.866 29.456,98.333 30.229,98.333 30.378 C 98.333 30.458,98.221 30.636,98.083 30.774 C 97.727 31.130,97.710 36.667,98.065 36.667 C 98.197 36.667,98.343 36.916,98.406 37.250 C 98.471 37.599,98.612 37.833,98.758 37.833 C 98.891 37.833,99.000 37.983,99.000 38.167 C 99.000 38.350,99.077 38.500,99.172 38.500 C 99.266 38.500,99.585 38.762,99.879 39.083 C 100.173 39.404,100.478 39.667,100.556 39.667 C 100.634 39.667,100.888 39.817,101.121 40.000 C 101.354 40.183,101.760 40.333,102.022 40.333 C 102.336 40.333,102.500 40.419,102.500 40.583 C 102.500 40.758,102.676 40.833,103.083 40.833 C 103.491 40.833,103.667 40.909,103.667 41.083 C 103.667 41.250,103.833 41.333,104.167 41.333 C 104.444 41.333,104.815 41.481,105.000 41.667 C 105.206 41.873,105.556 42.000,105.917 42.000 C 106.324 42.000,106.500 42.075,106.500 42.250 C 106.500 42.389,106.648 42.500,106.833 42.500 C 107.056 42.500,107.167 42.611,107.167 42.833 C 107.167 43.019,107.278 43.167,107.417 43.167 C 107.606 43.167,107.667 43.370,107.667 44.000 C 107.667 44.630,107.606 44.833,107.417 44.833 C 107.278 44.833,107.167 44.981,107.167 45.167 C 107.167 45.484,107.056 45.500,104.853 45.500 C 102.679 45.500,102.534 45.480,102.452 45.167 C 102.388 44.924,102.224 44.833,101.849 44.833 C 101.502 44.833,101.333 44.752,101.333 44.583 C 101.333 44.410,101.160 44.333,100.769 44.333 C 100.346 44.333,100.184 44.250,100.118 44.000 C 100.046 43.723,99.891 43.667,99.196 43.667 C 98.027 43.667,97.833 43.773,97.833 44.417 C 97.833 44.750,97.735 45.002,97.583 45.060 C 97.392 45.134,97.333 45.447,97.333 46.391 C 97.333 47.285,97.402 47.683,97.583 47.833 C 97.721 47.947,97.833 48.252,97.833 48.510 C 97.833 49.099,98.576 49.933,99.248 50.099 C 99.522 50.167,99.847 50.323,99.969 50.445 C 100.384 50.860,110.248 50.758,110.788 50.333 C 111.021 50.150,111.314 50.000,111.439 50.000 C 111.564 50.000,111.667 49.897,111.667 49.771 C 111.667 49.645,111.873 49.500,112.125 49.449 C 112.400 49.394,112.704 49.153,112.884 48.845 C 113.050 48.564,113.256 48.333,113.343 48.333 C 113.429 48.333,113.500 48.229,113.500 48.101 C 113.500 47.973,113.612 47.826,113.750 47.773 C 113.893 47.718,114.000 47.469,114.000 47.191 C 114.000 46.846,114.096 46.680,114.333 46.618 C 114.589 46.552,114.667 46.391,114.667 45.932 C 114.667 45.511,114.741 45.333,114.917 45.333 C 115.124 45.333,115.167 45.009,115.167 43.417 C 115.167 41.824,115.124 41.500,114.917 41.500 C 114.736 41.500,114.667 41.315,114.667 40.832 C 114.667 40.370,114.564 40.075,114.333 39.878 C 114.150 39.721,114.000 39.497,114.000 39.380 C 114.000 39.262,113.888 39.167,113.750 39.167 C 113.611 39.167,113.500 39.019,113.500 38.833 C 113.500 38.648,113.389 38.500,113.250 38.500 C 113.112 38.500,113.000 38.387,113.000 38.250 C 113.000 38.112,112.859 38.000,112.686 38.000 C 112.512 38.000,112.333 37.851,112.285 37.667 C 112.222 37.424,112.058 37.333,111.682 37.333 C 111.335 37.333,111.167 37.252,111.167 37.083 C 111.167 36.909,110.991 36.833,110.583 36.833 C 110.111 36.833,110.000 36.770,110.000 36.500 C 110.000 36.230,109.889 36.167,109.417 36.167 C 109.009 36.167,108.833 36.091,108.833 35.917 C 108.833 35.729,108.632 35.667,108.019 35.667 C 107.346 35.667,107.191 35.609,107.118 35.333 C 107.055 35.091,106.891 35.000,106.516 35.000 C 106.168 35.000,106.000 34.918,106.000 34.750 C 106.000 34.611,105.852 34.500,105.667 34.500 C 105.478 34.500,105.333 34.389,105.333 34.245 C 105.333 34.104,105.221 33.946,105.083 33.894 C 104.929 33.834,104.833 33.581,104.833 33.232 C 104.833 32.841,104.910 32.667,105.083 32.667 C 105.221 32.667,105.333 32.554,105.333 32.417 C 105.333 32.279,105.453 32.167,105.599 32.167 C 105.745 32.167,105.904 32.017,105.952 31.833 C 106.028 31.541,106.179 31.500,107.186 31.500 C 108.222 31.500,108.333 31.532,108.333 31.833 C 108.333 32.122,108.444 32.167,109.167 32.167 C 109.796 32.167,110.000 32.228,110.000 32.417 C 110.000 32.590,110.174 32.667,110.564 32.667 C 110.988 32.667,111.149 32.750,111.215 33.000 C 111.291 33.291,111.442 33.333,112.401 33.333 L 113.500 33.333 113.500 32.667 C 113.500 32.185,113.569 32.000,113.750 32.000 C 113.951 32.000,114.000 31.743,114.000 30.687 C 114.000 29.723,113.934 29.319,113.750 29.167 C 113.612 29.053,113.500 28.781,113.500 28.563 C 113.500 28.128,112.969 27.500,112.601 27.500 C 112.473 27.500,112.326 27.387,112.273 27.250 C 112.205 27.074,111.930 27.000,111.339 27.000 C 110.611 27.000,110.500 26.956,110.500 26.667 C 110.500 26.345,104.557 26.161,103.458 26.448 M200.667 26.667 C 200.667 26.937,200.556 27.000,200.083 27.000 C 199.676 27.000,199.500 27.075,199.500 27.250 C 199.500 27.425,199.324 27.500,198.917 27.500 C 198.444 27.500,198.333 27.563,198.333 27.833 C 198.333 28.070,198.222 28.167,197.950 28.167 C 197.739 28.167,197.478 28.256,197.369 28.365 C 197.216 28.517,197.147 28.441,197.065 28.031 C 197.006 27.739,196.863 27.500,196.747 27.500 C 196.631 27.500,196.492 27.387,196.440 27.250 C 196.254 26.765,191.017 26.900,190.542 27.401 L 190.167 27.797 190.167 38.745 L 190.167 49.692 190.654 50.179 L 191.141 50.667 194.071 50.667 C 197.151 50.667,197.667 50.538,197.667 49.768 C 197.667 49.640,197.779 49.492,197.917 49.440 C 198.133 49.357,198.167 48.413,198.167 42.347 L 198.167 35.349 198.750 34.783 C 199.071 34.471,199.333 34.130,199.333 34.025 C 199.333 33.920,199.483 33.833,199.667 33.833 C 199.852 33.833,200.000 33.722,200.000 33.583 C 200.000 33.415,200.168 33.333,200.516 33.333 C 200.891 33.333,201.055 33.243,201.118 33.000 C 201.182 32.756,201.346 32.667,201.729 32.667 C 202.073 32.667,202.325 32.782,202.461 33.000 C 202.579 33.188,202.850 33.333,203.085 33.333 C 203.343 33.333,203.500 33.428,203.500 33.583 C 203.500 33.721,203.603 33.833,203.728 33.833 C 203.884 33.833,203.993 34.149,204.068 34.818 C 204.130 35.360,204.289 35.894,204.423 36.005 C 204.629 36.177,204.667 37.256,204.667 43.075 L 204.667 49.942 205.052 50.304 C 205.652 50.868,210.805 50.862,211.331 50.297 C 211.826 49.766,211.788 32.123,211.292 31.760 C 211.095 31.616,211.000 31.321,211.000 30.851 C 211.000 30.387,210.917 30.124,210.750 30.060 C 210.612 30.008,210.500 29.822,210.500 29.649 C 210.500 29.444,210.383 29.333,210.167 29.333 C 209.907 29.333,209.833 29.222,209.833 28.829 C 209.833 28.445,209.734 28.287,209.417 28.167 C 209.188 28.080,209.000 27.939,209.000 27.854 C 209.000 27.769,208.775 27.621,208.500 27.525 C 208.225 27.429,208.000 27.272,208.000 27.175 C 208.000 27.079,207.775 27.000,207.500 27.000 C 207.222 27.000,206.852 26.852,206.667 26.667 C 206.359 26.359,206.111 26.333,203.500 26.333 C 200.778 26.333,200.667 26.346,200.667 26.667 M283.667 26.667 C 283.667 26.968,283.556 27.000,282.500 27.000 C 281.574 27.000,281.333 27.052,281.333 27.250 C 281.333 27.425,281.157 27.500,280.750 27.500 C 280.389 27.500,280.040 27.627,279.833 27.833 C 279.650 28.017,279.402 28.167,279.283 28.167 C 278.874 28.167,277.833 29.275,277.833 29.710 C 277.833 29.939,277.721 30.219,277.583 30.333 C 277.417 30.471,277.333 30.844,277.333 31.442 C 277.333 32.090,277.404 32.371,277.583 32.440 C 277.728 32.495,277.833 32.745,277.833 33.033 C 277.833 33.922,278.572 34.500,279.708 34.500 C 280.556 34.500,280.667 34.461,280.667 34.167 C 280.667 33.897,280.778 33.833,281.250 33.833 C 281.657 33.833,281.833 33.758,281.833 33.583 C 281.833 33.409,282.009 33.333,282.417 33.333 C 282.889 33.333,283.000 33.270,283.000 33.000 C 283.000 32.701,283.111 32.667,284.089 32.667 C 284.902 32.667,285.201 32.604,285.273 32.417 C 285.345 32.228,285.648 32.167,286.500 32.167 C 287.352 32.167,287.655 32.228,287.727 32.417 C 287.792 32.586,288.058 32.667,288.551 32.667 L 289.280 32.667 289.487 33.825 C 289.601 34.463,289.648 35.130,289.591 35.308 C 289.530 35.501,289.597 35.739,289.756 35.899 C 290.002 36.145,289.763 36.167,286.845 36.167 C 283.778 36.167,283.667 36.178,283.667 36.500 C 283.667 36.802,283.556 36.833,282.500 36.833 C 281.574 36.833,281.333 36.885,281.333 37.083 C 281.333 37.258,281.157 37.333,280.750 37.333 C 280.278 37.333,280.167 37.397,280.167 37.667 C 280.167 37.937,280.056 38.000,279.583 38.000 C 279.176 38.000,279.000 38.075,279.000 38.250 C 279.000 38.389,278.852 38.500,278.667 38.500 C 278.444 38.500,278.333 38.611,278.333 38.833 C 278.333 39.019,278.222 39.167,278.083 39.167 C 277.946 39.167,277.833 39.270,277.833 39.397 C 277.833 39.524,277.683 39.667,277.500 39.715 C 277.317 39.763,277.167 39.927,277.167 40.080 C 277.167 40.232,277.054 40.470,276.917 40.607 C 276.777 40.747,276.664 41.163,276.661 41.554 C 276.658 41.937,276.546 42.396,276.411 42.574 C 276.270 42.760,276.167 43.258,276.167 43.750 C 276.167 44.242,276.270 44.740,276.411 44.926 C 276.546 45.104,276.658 45.560,276.661 45.938 C 276.664 46.340,276.770 46.712,276.917 46.833 C 277.054 46.947,277.167 47.179,277.167 47.348 C 277.167 47.517,277.317 47.735,277.500 47.833 C 277.683 47.931,277.833 48.156,277.833 48.333 C 277.833 48.510,277.983 48.735,278.167 48.833 C 278.350 48.931,278.500 49.122,278.500 49.256 C 278.500 49.390,278.650 49.500,278.833 49.500 C 279.017 49.500,279.167 49.566,279.167 49.646 C 279.167 49.727,279.386 49.884,279.655 49.995 C 279.923 50.106,280.183 50.303,280.233 50.432 C 280.372 50.794,289.134 50.779,289.273 50.417 C 289.326 50.279,289.473 50.167,289.601 50.167 C 289.729 50.167,289.983 50.017,290.167 49.833 C 290.529 49.471,290.949 49.694,291.216 50.388 C 291.310 50.632,291.647 50.667,293.938 50.667 L 296.554 50.667 297.027 50.137 L 297.500 49.607 297.500 41.257 C 297.500 34.509,297.457 32.844,297.274 32.579 C 297.150 32.398,297.005 31.915,296.952 31.506 C 296.899 31.097,296.738 30.676,296.594 30.571 C 296.451 30.466,296.333 30.272,296.333 30.141 C 296.333 29.900,296.002 29.398,295.458 28.814 C 295.298 28.641,295.167 28.425,295.167 28.333 C 295.167 28.242,294.980 28.167,294.751 28.167 C 294.517 28.167,294.246 28.022,294.128 27.833 C 293.989 27.611,293.739 27.500,293.377 27.500 C 293.005 27.500,292.833 27.421,292.833 27.250 C 292.833 27.083,292.667 27.000,292.333 27.000 C 292.056 27.000,291.685 26.852,291.500 26.667 C 291.186 26.353,290.944 26.333,287.417 26.333 C 283.778 26.333,283.667 26.343,283.667 26.667 M358.548 26.667 C 358.475 26.947,358.321 27.000,357.584 27.000 C 357.008 27.000,356.636 27.086,356.500 27.250 C 356.386 27.387,356.077 27.500,355.814 27.500 C 355.517 27.500,355.258 27.626,355.128 27.833 C 355.005 28.031,354.739 28.167,354.478 28.167 C 354.235 28.167,353.992 28.279,353.940 28.417 C 353.887 28.554,353.729 28.667,353.589 28.667 C 353.448 28.667,353.333 28.786,353.333 28.932 C 353.333 29.078,353.183 29.388,353.000 29.621 C 352.468 30.298,352.551 33.167,353.103 33.167 C 353.230 33.167,353.333 33.317,353.333 33.500 C 353.333 33.683,353.437 33.833,353.564 33.833 C 353.691 33.833,353.834 33.983,353.882 34.167 C 354.025 34.715,356.167 34.620,356.167 34.066 C 356.167 33.921,356.348 33.833,356.649 33.833 C 356.924 33.833,357.172 33.726,357.227 33.583 C 357.284 33.435,357.534 33.333,357.844 33.333 C 358.224 33.333,358.388 33.244,358.452 33.000 C 358.524 32.724,358.679 32.667,359.353 32.667 C 359.965 32.667,360.167 32.605,360.167 32.417 C 360.167 32.213,360.444 32.167,361.667 32.167 C 362.889 32.167,363.167 32.213,363.167 32.417 C 363.167 32.591,363.343 32.667,363.750 32.667 C 364.222 32.667,364.333 32.730,364.333 33.000 C 364.333 33.185,364.444 33.333,364.583 33.333 C 364.786 33.333,364.833 33.602,364.833 34.750 L 364.833 36.167 361.734 36.167 C 358.776 36.167,358.632 36.182,358.548 36.500 C 358.473 36.790,358.321 36.833,357.392 36.833 C 356.595 36.833,356.298 36.897,356.227 37.083 C 356.171 37.228,355.922 37.333,355.633 37.333 C 355.276 37.333,355.111 37.427,355.048 37.667 C 354.993 37.880,354.821 38.000,354.572 38.000 C 354.163 38.000,353.333 38.655,353.333 38.977 C 353.333 39.082,353.224 39.167,353.091 39.167 C 352.946 39.167,352.805 39.401,352.739 39.750 C 352.676 40.084,352.531 40.333,352.398 40.333 C 352.227 40.333,352.167 40.588,352.167 41.313 C 352.167 41.980,352.087 42.359,351.917 42.500 C 351.743 42.644,351.667 43.027,351.667 43.750 C 351.667 44.473,351.743 44.856,351.917 45.000 C 352.083 45.138,352.167 45.512,352.167 46.116 C 352.167 46.701,352.256 47.113,352.417 47.274 C 352.554 47.411,352.667 47.675,352.667 47.861 C 352.667 48.058,352.805 48.234,353.000 48.285 C 353.183 48.333,353.333 48.478,353.333 48.608 C 353.333 48.738,353.446 48.887,353.583 48.940 C 353.721 48.992,353.833 49.140,353.833 49.268 C 353.833 49.396,353.983 49.500,354.167 49.500 C 354.350 49.500,354.500 49.597,354.500 49.717 C 354.500 49.836,354.762 50.028,355.083 50.144 C 355.404 50.260,355.667 50.425,355.667 50.511 C 355.667 50.867,363.989 50.699,364.455 50.333 C 364.688 50.150,364.973 50.000,365.088 50.000 C 365.203 50.000,365.341 49.887,365.394 49.750 C 365.505 49.459,366.000 49.410,366.000 49.689 C 366.000 50.759,371.175 51.214,372.091 50.226 L 372.500 49.785 372.496 41.184 C 372.492 33.007,372.411 31.331,372.009 31.197 C 371.912 31.165,371.833 30.947,371.833 30.712 C 371.833 30.123,370.247 28.167,369.769 28.167 C 369.643 28.167,369.500 28.017,369.452 27.833 C 369.388 27.591,369.224 27.500,368.849 27.500 C 368.502 27.500,368.333 27.418,368.333 27.250 C 368.333 27.062,368.132 27.000,367.519 27.000 C 366.846 27.000,366.691 26.943,366.618 26.667 C 366.534 26.345,366.391 26.333,362.583 26.333 C 358.776 26.333,358.632 26.345,358.548 26.667 M387.000 26.667 C 387.000 26.937,386.889 27.000,386.417 27.000 C 386.009 27.000,385.833 27.075,385.833 27.250 C 385.833 27.421,385.662 27.500,385.290 27.500 C 384.940 27.500,384.678 27.611,384.552 27.812 C 384.355 28.128,383.500 28.402,383.500 28.149 C 383.500 28.074,383.278 27.784,383.006 27.506 L 382.511 27.000 379.931 27.000 C 377.449 27.000,377.334 27.015,376.925 27.394 L 376.500 27.788 376.500 38.894 C 376.500 48.536,376.532 50.000,376.744 50.000 C 376.878 50.000,377.069 50.150,377.167 50.333 C 377.335 50.647,377.516 50.667,380.302 50.667 C 383.541 50.667,384.000 50.551,384.000 49.735 C 384.000 49.507,384.115 49.146,384.256 48.931 C 384.632 48.358,384.550 36.237,384.169 36.001 C 383.959 35.872,383.978 35.795,384.294 35.501 C 384.499 35.310,384.667 35.007,384.667 34.827 C 384.667 34.647,384.768 34.500,384.891 34.500 C 385.014 34.500,385.251 34.350,385.417 34.167 C 385.583 33.983,385.857 33.833,386.026 33.833 C 386.195 33.833,386.333 33.721,386.333 33.583 C 386.333 33.415,386.502 33.333,386.849 33.333 C 387.224 33.333,387.388 33.243,387.452 33.000 C 387.516 32.752,387.679 32.667,388.083 32.667 C 388.488 32.667,388.650 32.752,388.715 33.000 C 388.778 33.243,388.942 33.333,389.318 33.333 C 389.762 33.333,389.833 33.394,389.833 33.766 C 389.833 34.058,389.941 34.226,390.167 34.285 C 390.494 34.371,390.500 34.512,390.500 41.909 L 390.500 49.446 391.159 50.057 L 391.819 50.667 394.576 50.667 C 398.442 50.667,398.001 51.940,397.998 40.792 C 397.995 31.019,397.988 30.932,397.205 30.585 C 396.946 30.471,396.833 30.277,396.833 29.945 C 396.833 29.609,396.735 29.443,396.500 29.382 C 396.316 29.333,396.167 29.154,396.167 28.981 C 396.167 28.808,396.054 28.667,395.917 28.667 C 395.779 28.667,395.667 28.554,395.667 28.417 C 395.667 28.278,395.519 28.167,395.333 28.167 C 395.111 28.167,395.000 28.056,395.000 27.833 C 395.000 27.611,394.889 27.500,394.667 27.500 C 394.481 27.500,394.333 27.389,394.333 27.250 C 394.333 27.061,394.130 27.000,393.500 27.000 C 392.778 27.000,392.667 26.956,392.667 26.667 C 392.667 26.346,392.556 26.333,389.833 26.333 C 387.111 26.333,387.000 26.346,387.000 26.667 M141.333 27.250 C 141.333 27.387,141.221 27.500,141.083 27.500 C 140.878 27.500,140.833 27.797,140.833 29.172 C 140.833 30.504,140.884 30.863,141.083 30.940 C 141.251 31.004,141.333 31.268,141.333 31.742 C 141.333 32.237,141.433 32.539,141.667 32.750 C 141.910 32.971,142.000 33.263,142.000 33.839 C 142.000 34.335,142.092 34.703,142.250 34.833 C 142.387 34.947,142.501 35.238,142.502 35.479 C 142.506 36.173,142.686 36.667,142.936 36.667 C 143.102 36.667,143.167 36.902,143.167 37.505 C 143.167 38.097,143.240 38.372,143.417 38.440 C 143.587 38.505,143.667 38.771,143.667 39.270 C 143.667 39.674,143.730 40.135,143.807 40.294 C 143.885 40.453,144.035 40.751,144.141 40.956 C 144.247 41.161,144.333 41.670,144.333 42.086 C 144.333 42.606,144.412 42.874,144.583 42.940 C 144.751 43.004,144.833 43.268,144.833 43.745 C 144.833 44.203,144.952 44.606,145.167 44.879 C 145.387 45.159,145.500 45.555,145.500 46.048 C 145.500 46.506,145.596 46.872,145.750 47.000 C 145.887 47.114,146.000 47.461,146.000 47.770 C 146.000 48.111,146.132 48.465,146.333 48.667 C 146.519 48.852,146.667 49.222,146.667 49.500 C 146.667 49.791,146.754 50.000,146.877 50.000 C 146.992 50.000,147.180 50.150,147.295 50.333 C 147.492 50.650,147.683 50.667,151.034 50.667 L 154.565 50.667 155.199 50.227 C 155.821 49.796,155.833 49.768,155.833 48.727 C 155.833 47.935,155.892 47.667,156.064 47.667 C 156.342 47.667,156.495 47.159,156.498 46.226 C 156.499 45.768,156.584 45.503,156.750 45.440 C 156.936 45.368,157.000 45.071,157.000 44.275 C 157.000 43.346,157.044 43.194,157.333 43.118 C 157.621 43.043,157.667 42.891,157.667 42.010 C 157.667 41.257,157.732 40.964,157.917 40.894 C 158.078 40.832,158.167 40.574,158.167 40.164 C 158.167 39.613,158.210 39.543,158.500 39.618 C 158.790 39.694,158.833 39.846,158.833 40.775 C 158.833 41.571,158.897 41.868,159.083 41.940 C 159.258 42.007,159.333 42.280,159.333 42.851 C 159.333 43.556,159.379 43.667,159.667 43.667 C 159.966 43.667,160.000 43.778,160.000 44.755 C 160.000 45.569,160.063 45.868,160.250 45.940 C 160.424 46.007,160.500 46.279,160.500 46.840 C 160.500 47.498,160.561 47.663,160.833 47.750 C 161.101 47.835,161.167 48.002,161.167 48.594 C 161.167 49.227,161.260 49.429,161.814 50.000 L 162.461 50.667 165.939 50.667 L 169.417 50.667 169.875 50.092 C 170.181 49.708,170.333 49.321,170.333 48.926 C 170.333 48.530,170.411 48.333,170.566 48.333 C 170.865 48.333,171.000 47.967,171.000 47.153 C 171.000 46.684,171.070 46.500,171.250 46.500 C 171.439 46.500,171.500 46.297,171.500 45.675 C 171.500 45.098,171.579 44.806,171.762 44.703 C 171.910 44.621,172.066 44.235,172.120 43.820 C 172.172 43.415,172.317 42.935,172.441 42.755 C 172.565 42.574,172.667 42.095,172.667 41.690 C 172.667 41.197,172.758 40.887,172.943 40.752 C 173.123 40.620,173.246 40.220,173.298 39.595 C 173.347 39.000,173.463 38.606,173.605 38.552 C 173.755 38.494,173.833 38.186,173.833 37.655 C 173.833 37.016,173.904 36.807,174.167 36.667 C 174.422 36.530,174.500 36.318,174.500 35.762 C 174.500 35.270,174.581 35.005,174.750 34.940 C 174.921 34.874,175.000 34.607,175.000 34.097 C 175.000 33.584,175.084 33.303,175.268 33.200 C 175.432 33.108,175.571 32.736,175.627 32.237 C 175.677 31.790,175.819 31.323,175.943 31.200 C 176.075 31.068,176.167 30.607,176.167 30.071 C 176.167 29.378,176.225 29.167,176.417 29.167 C 176.740 29.167,176.765 27.909,176.446 27.717 C 176.324 27.643,176.177 27.452,176.118 27.292 C 176.021 27.028,175.708 27.000,172.850 27.000 C 169.498 27.000,169.336 27.036,169.083 27.834 C 169.025 28.017,168.908 28.167,168.822 28.167 C 168.737 28.167,168.667 28.544,168.667 29.005 C 168.667 29.573,168.591 29.873,168.432 29.934 C 168.285 29.990,168.152 30.410,168.078 31.054 C 168.012 31.620,167.856 32.231,167.729 32.412 C 167.603 32.593,167.500 33.052,167.500 33.433 C 167.500 33.846,167.399 34.210,167.250 34.333 C 167.095 34.462,167.000 34.828,167.000 35.299 C 167.000 35.777,166.896 36.172,166.719 36.368 C 166.541 36.565,166.411 37.060,166.365 37.715 C 166.326 38.284,166.209 38.855,166.105 38.983 C 166.002 39.112,165.872 39.712,165.818 40.317 L 165.719 41.417 165.693 40.229 C 165.675 39.402,165.591 38.978,165.417 38.833 C 165.278 38.718,165.167 38.355,165.167 38.017 C 165.167 37.682,165.064 37.260,164.940 37.079 C 164.815 36.898,164.660 36.389,164.595 35.949 C 164.528 35.497,164.373 35.107,164.238 35.056 C 164.069 34.991,164.000 34.681,164.000 33.990 C 164.000 33.350,163.923 32.971,163.775 32.883 C 163.651 32.810,163.504 32.346,163.447 31.852 C 163.390 31.358,163.229 30.827,163.088 30.672 C 162.948 30.517,162.833 30.120,162.833 29.790 C 162.833 29.460,162.721 29.078,162.583 28.940 C 162.446 28.803,162.333 28.541,162.333 28.359 C 162.333 27.851,162.156 27.500,161.899 27.500 C 161.771 27.500,161.667 27.387,161.667 27.250 C 161.667 27.037,161.212 27.000,158.578 27.000 C 155.986 27.000,155.474 27.040,155.394 27.250 C 155.341 27.387,155.201 27.500,155.083 27.500 C 154.803 27.500,154.667 27.879,154.667 28.662 C 154.667 29.073,154.578 29.332,154.417 29.394 C 154.232 29.465,154.167 29.758,154.167 30.518 C 154.167 31.268,154.095 31.599,153.900 31.741 C 153.704 31.885,153.610 32.330,153.544 33.426 C 153.483 34.427,153.379 34.960,153.227 35.050 C 153.084 35.134,153.000 35.489,153.000 36.008 C 153.000 36.602,152.935 36.833,152.768 36.833 C 152.447 36.833,152.333 37.207,152.333 38.264 C 152.333 38.955,152.275 39.167,152.083 39.167 C 151.928 39.167,151.833 39.324,151.833 39.585 C 151.833 39.961,151.800 39.982,151.500 39.795 C 151.229 39.625,151.167 39.406,151.167 38.621 C 151.167 37.917,151.099 37.630,150.917 37.560 C 150.741 37.493,150.667 37.218,150.667 36.633 C 150.667 35.942,150.610 35.787,150.333 35.715 C 150.057 35.643,150.000 35.488,150.000 34.809 C 150.000 34.234,149.925 33.961,149.750 33.894 C 149.566 33.823,149.500 33.533,149.500 32.800 C 149.500 31.942,149.453 31.790,149.167 31.715 C 148.882 31.641,148.833 31.488,148.833 30.668 C 148.833 30.017,148.753 29.640,148.583 29.500 C 148.446 29.386,148.333 29.073,148.333 28.804 C 148.333 28.536,148.165 28.021,147.958 27.659 L 147.583 27.003 144.458 27.001 C 141.791 27.000,141.333 27.037,141.333 27.250 M178.862 27.386 L 178.500 27.771 178.500 38.886 C 178.500 49.659,178.510 50.000,178.814 50.000 C 178.988 50.000,179.167 50.149,179.215 50.333 C 179.369 50.921,185.052 50.839,185.606 50.241 L 186.000 49.816 186.000 38.658 C 186.000 28.851,185.970 27.500,185.750 27.500 C 185.612 27.500,185.500 27.387,185.500 27.250 C 185.500 26.766,179.326 26.892,178.862 27.386 M301.667 27.206 C 301.667 27.324,301.517 27.513,301.333 27.628 C 300.740 27.998,300.841 43.667,301.436 43.667 C 301.613 43.667,301.667 43.977,301.667 45.005 C 301.667 46.041,301.723 46.365,301.917 46.440 C 302.062 46.495,302.167 46.745,302.167 47.033 C 302.167 47.391,302.261 47.556,302.500 47.618 C 302.684 47.667,302.833 47.846,302.833 48.019 C 302.833 48.192,302.946 48.333,303.083 48.333 C 303.221 48.333,303.333 48.475,303.333 48.647 C 303.333 48.826,303.659 49.203,304.087 49.522 C 304.501 49.831,305.000 50.215,305.195 50.375 C 305.774 50.850,313.344 50.814,313.955 50.333 C 314.188 50.150,314.481 50.000,314.606 50.000 C 314.731 50.000,314.833 49.887,314.833 49.750 C 314.833 49.611,314.981 49.500,315.167 49.500 C 315.350 49.500,315.500 49.396,315.500 49.269 C 315.500 49.143,315.650 49.000,315.833 48.952 C 316.047 48.896,316.167 48.947,316.167 49.094 C 316.167 49.220,316.324 49.625,316.517 49.995 L 316.867 50.667 319.266 50.667 C 321.745 50.667,322.500 50.450,322.500 49.738 C 322.500 49.627,322.612 49.492,322.750 49.440 C 323.182 49.274,323.110 28.395,322.676 27.875 C 322.504 27.669,322.244 27.500,322.098 27.500 C 321.953 27.500,321.833 27.387,321.833 27.250 C 321.833 26.815,315.907 26.884,315.673 27.322 C 315.561 27.530,315.500 30.193,315.500 34.822 C 315.500 41.091,315.468 42.000,315.250 42.000 C 315.112 42.000,315.000 42.107,315.000 42.239 C 315.000 42.370,314.850 42.525,314.667 42.583 C 314.483 42.642,314.333 42.797,314.333 42.928 C 314.333 43.059,314.221 43.167,314.083 43.167 C 313.946 43.167,313.833 43.270,313.833 43.397 C 313.833 43.524,313.683 43.667,313.500 43.715 C 313.317 43.763,313.167 43.922,313.167 44.068 C 313.167 44.258,313.008 44.333,312.604 44.333 C 312.294 44.333,311.947 44.446,311.833 44.583 C 311.560 44.912,310.833 44.912,310.833 44.583 C 310.833 44.409,310.657 44.333,310.250 44.333 C 309.778 44.333,309.667 44.270,309.667 44.000 C 309.667 43.817,309.565 43.667,309.442 43.667 C 309.104 43.667,309.000 41.511,309.000 34.483 C 309.000 29.373,308.961 28.328,308.764 28.217 C 308.635 28.143,308.504 27.858,308.473 27.583 L 308.417 27.083 305.042 27.038 C 302.387 27.003,301.667 27.039,301.667 27.206 M81.931 28.667 C 82.103 28.667,82.167 28.892,82.167 29.500 C 82.167 30.130,82.228 30.333,82.417 30.333 C 82.596 30.333,82.667 30.517,82.667 30.986 C 82.667 31.801,82.801 32.167,83.101 32.167 C 83.269 32.167,83.333 32.399,83.333 33.000 C 83.333 33.630,83.394 33.833,83.583 33.833 C 83.769 33.833,83.833 34.028,83.833 34.585 C 83.833 35.130,83.925 35.415,84.167 35.622 C 84.402 35.823,84.500 36.114,84.500 36.608 C 84.500 37.009,84.607 37.417,84.750 37.560 C 84.887 37.697,85.000 37.852,85.000 37.905 C 85.000 37.957,83.575 38.000,81.833 38.000 L 78.667 38.000 78.667 37.351 C 78.667 36.928,78.754 36.669,78.917 36.606 C 79.100 36.536,79.167 36.247,79.167 35.525 C 79.167 34.679,79.214 34.526,79.500 34.452 C 79.778 34.379,79.833 34.224,79.833 33.516 C 79.833 32.872,79.894 32.667,80.083 32.667 C 80.271 32.667,80.333 32.465,80.333 31.853 C 80.333 31.179,80.391 31.024,80.667 30.952 C 80.944 30.879,81.000 30.724,81.000 30.033 C 81.000 29.448,81.074 29.174,81.250 29.106 C 81.387 29.054,81.506 28.839,81.513 28.630 C 81.520 28.421,81.564 28.344,81.610 28.458 C 81.657 28.573,81.801 28.667,81.931 28.667 M20.292 30.451 C 20.498 30.491,20.835 30.491,21.042 30.451 C 21.248 30.411,21.079 30.379,20.667 30.379 C 20.254 30.379,20.085 30.411,20.292 30.451 M289.762 41.095 C 289.428 41.429,289.417 42.661,289.745 43.093 C 290.057 43.506,290.061 43.667,289.761 43.667 C 289.630 43.667,289.475 43.817,289.417 44.000 C 289.358 44.183,289.203 44.333,289.072 44.333 C 288.941 44.333,288.833 44.440,288.833 44.570 C 288.833 44.700,288.603 44.857,288.322 44.919 C 288.041 44.981,287.770 45.137,287.721 45.266 C 287.561 45.682,284.885 45.593,284.750 45.167 C 284.692 44.983,284.537 44.833,284.405 44.833 C 283.978 44.833,284.069 42.064,284.500 41.952 C 284.683 41.904,284.833 41.745,284.833 41.599 C 284.833 41.391,285.015 41.333,285.667 41.333 C 286.296 41.333,286.500 41.272,286.500 41.083 C 286.500 40.877,286.807 40.833,288.262 40.833 C 289.864 40.833,290.000 40.857,289.762 41.095 M364.833 42.583 L 364.833 44.333 364.411 44.333 C 364.179 44.333,363.949 44.438,363.900 44.567 C 363.851 44.695,363.665 44.838,363.488 44.885 C 363.311 44.931,363.167 45.088,363.167 45.234 C 363.167 45.458,362.928 45.500,361.667 45.500 C 360.444 45.500,360.167 45.454,360.167 45.250 C 360.167 45.112,360.054 45.000,359.917 45.000 C 359.779 45.000,359.667 44.880,359.667 44.734 C 359.667 44.588,359.517 44.430,359.333 44.382 C 359.052 44.308,359.000 44.154,359.000 43.397 C 359.000 42.611,359.041 42.500,359.333 42.500 C 359.519 42.500,359.667 42.389,359.667 42.250 C 359.667 42.112,359.779 42.000,359.917 42.000 C 360.056 42.000,360.167 41.852,360.167 41.667 C 360.167 41.374,360.278 41.333,361.083 41.333 C 361.787 41.333,362.000 41.275,362.000 41.083 C 362.000 40.881,362.269 40.833,363.417 40.833 L 364.833 40.833 364.833 42.583 M55.742 58.048 C 55.645 58.159,55.514 58.400,55.450 58.583 C 55.349 58.871,55.379 58.862,55.666 58.523 C 55.850 58.307,56.000 58.063,56.000 57.982 C 56.000 57.790,55.955 57.802,55.742 58.048 " stroke="none" fill="#040404" fill-rule="evenodd"></path></g></svg>